<<svg width="78" height="40" viewBox="0 0 78 40" fill="none" xmlns="http://www.w3.org/2000/svg">
<path d="M19.6875 11.875C19.6875 10.2527 21.0027 8.9375 22.625 8.9375C24.2473 8.9375 25.5625 10.2527 25.5625 11.875V17.5C25.5625 19.1223 24.2473 20.4375 22.625 20.4375C21.0027 20.4375 19.6875 19.1223 19.6875 17.5V11.875Z" fill="url(#paint0_linear_1573_4088)"/>
<path d="M6.9375 11.8125C6.9375 10.1902 8.25266 8.875 9.875 8.875C11.4973 8.875 12.8125 10.1902 12.8125 11.8125V17.4375C12.8125 19.0598 11.4973 20.375 9.875 20.375C8.25266 20.375 6.9375 19.0598 6.9375 17.4375V11.8125Z" fill="url(#paint1_linear_1573_4088)"/>
<path d="M19.8125 12.0625C19.8125 10.4402 21.1277 9.125 22.75 9.125C24.3723 9.125 25.6875 10.4402 25.6875 12.0625V17.6875C25.6875 19.3098 24.3723 20.625 22.75 20.625C21.1277 20.625 19.8125 19.3098 19.8125 17.6875V12.0625Z" fill="url(#paint2_linear_1573_4088)"/>
<path d="M13.375 16.625C13.375 15.0027 14.6902 13.6875 16.3125 13.6875C17.9348 13.6875 19.25 15.0027 19.25 16.625V22.25C19.25 23.8723 17.9348 25.1875 16.3125 25.1875C14.6902 25.1875 13.375 23.8723 13.375 22.25V16.625Z" fill="url(#paint3_linear_1573_4088)"/>
<path d="M38.02 18V16.95L37.92 16.72V14.84C37.92 14.5067 37.8167 14.2467 37.61 14.06C37.41 13.8733 37.1 13.78 36.68 13.78C36.3933 13.78 36.11 13.8267 35.83 13.92C35.5567 14.0067 35.3233 14.1267 35.13 14.28L34.57 13.19C34.8633 12.9833 35.2167 12.8233 35.63 12.71C36.0433 12.5967 36.4633 12.54 36.89 12.54C37.71 12.54 38.3467 12.7333 38.8 13.12C39.2533 13.5067 39.48 14.11 39.48 14.93V18H38.02ZM36.38 18.08C35.96 18.08 35.6 18.01 35.3 17.87C35 17.7233 34.77 17.5267 34.61 17.28C34.45 17.0333 34.37 16.7567 34.37 16.45C34.37 16.13 34.4467 15.85 34.6 15.61C34.76 15.37 35.01 15.1833 35.35 15.05C35.69 14.91 36.1333 14.84 36.68 14.84H38.11V15.75H36.85C36.4833 15.75 36.23 15.81 36.09 15.93C35.9567 16.05 35.89 16.2 35.89 16.38C35.89 16.58 35.9667 16.74 36.12 16.86C36.28 16.9733 36.4967 17.03 36.77 17.03C37.03 17.03 37.2633 16.97 37.47 16.85C37.6767 16.7233 37.8267 16.54 37.92 16.3L38.16 17.02C38.0467 17.3667 37.84 17.63 37.54 17.81C37.24 17.99 36.8533 18.08 36.38 18.08ZM43.6719 18.08C43.2185 18.08 42.8219 17.98 42.4819 17.78C42.1419 17.58 41.8752 17.2767 41.6819 16.87C41.4952 16.4567 41.4019 15.9367 41.4019 15.31C41.4019 14.6767 41.4919 14.1567 41.6719 13.75C41.8519 13.3433 42.1119 13.04 42.4519 12.84C42.7919 12.64 43.1985 12.54 43.6719 12.54C44.1785 12.54 44.6319 12.6567 45.0319 12.89C45.4385 13.1167 45.7585 13.4367 45.9919 13.85C46.2319 14.2633 46.3519 14.75 46.3519 15.31C46.3519 15.8767 46.2319 16.3667 45.9919 16.78C45.7585 17.1933 45.4385 17.5133 45.0319 17.74C44.6319 17.9667 44.1785 18.08 43.6719 18.08ZM40.4919 19.94V12.62H41.9819V13.72L41.9519 15.32L42.0519 16.91V19.94H40.4919ZM43.4019 16.8C43.6619 16.8 43.8919 16.74 44.0919 16.62C44.2985 16.5 44.4619 16.33 44.5819 16.11C44.7085 15.8833 44.7719 15.6167 44.7719 15.31C44.7719 14.9967 44.7085 14.73 44.5819 14.51C44.4619 14.29 44.2985 14.12 44.0919 14C43.8919 13.88 43.6619 13.82 43.4019 13.82C43.1419 13.82 42.9085 13.88 42.7019 14C42.4952 14.12 42.3319 14.29 42.2119 14.51C42.0919 14.73 42.0319 14.9967 42.0319 15.31C42.0319 15.6167 42.0919 15.8833 42.2119 16.11C42.3319 16.33 42.4952 16.5 42.7019 16.62C42.9085 16.74 43.1419 16.8 43.4019 16.8ZM49.6662 18.08C49.0528 18.08 48.5128 17.96 48.0462 17.72C47.5862 17.48 47.2295 17.1533 46.9762 16.74C46.7228 16.32 46.5962 15.8433 46.5962 15.31C46.5962 14.77 46.7195 14.2933 46.9662 13.88C47.2195 13.46 47.5628 13.1333 47.9962 12.9C48.4295 12.66 48.9195 12.54 49.4662 12.54C49.9928 12.54 50.4662 12.6533 50.8862 12.88C51.3128 13.1 51.6495 13.42 51.8962 13.84C52.1428 14.2533 52.2662 14.75 52.2662 15.33C52.2662 15.39 52.2628 15.46 52.2562 15.54C52.2495 15.6133 52.2428 15.6833 52.2362 15.75H47.8662V14.84H51.4162L50.8162 15.11C50.8162 14.83 50.7595 14.5867 50.6462 14.38C50.5328 14.1733 50.3762 14.0133 50.1762 13.9C49.9762 13.78 49.7428 13.72 49.4762 13.72C49.2095 13.72 48.9728 13.78 48.7662 13.9C48.5662 14.0133 48.4095 14.1767 48.2962 14.39C48.1828 14.5967 48.1262 14.8433 48.1262 15.13V15.37C48.1262 15.6633 48.1895 15.9233 48.3162 16.15C48.4495 16.37 48.6328 16.54 48.8662 16.66C49.1062 16.7733 49.3862 16.83 49.7062 16.83C49.9928 16.83 50.2428 16.7867 50.4562 16.7C50.6762 16.6133 50.8762 16.4833 51.0562 16.31L51.8862 17.21C51.6395 17.49 51.3295 17.7067 50.9562 17.86C50.5828 18.0067 50.1528 18.08 49.6662 18.08ZM52.9048 18V12.62H54.3948V14.14L54.1848 13.7C54.3448 13.32 54.6014 13.0333 54.9548 12.84C55.3081 12.64 55.7381 12.54 56.2448 12.54V13.98C56.1781 13.9733 56.1181 13.97 56.0648 13.97C56.0114 13.9633 55.9548 13.96 55.8948 13.96C55.4681 13.96 55.1214 14.0833 54.8548 14.33C54.5948 14.57 54.4648 14.9467 54.4648 15.46V18H52.9048ZM56.7723 18V12.62H58.3323V18H56.7723ZM57.5523 11.87C57.2657 11.87 57.0323 11.7867 56.8523 11.62C56.6723 11.4533 56.5823 11.2467 56.5823 11C56.5823 10.7533 56.6723 10.5467 56.8523 10.38C57.0323 10.2133 57.2657 10.13 57.5523 10.13C57.839 10.13 58.0723 10.21 58.2523 10.37C58.4323 10.5233 58.5223 10.7233 58.5223 10.97C58.5223 11.23 58.4323 11.4467 58.2523 11.62C58.079 11.7867 57.8457 11.87 57.5523 11.87ZM61.6502 18.08C61.2035 18.08 60.8035 17.9933 60.4502 17.82C60.1035 17.6467 59.8335 17.3833 59.6402 17.03C59.4468 16.67 59.3502 16.2133 59.3502 15.66V12.62H60.9102V15.43C60.9102 15.8767 61.0035 16.2067 61.1902 16.42C61.3835 16.6267 61.6535 16.73 62.0002 16.73C62.2402 16.73 62.4535 16.68 62.6402 16.58C62.8268 16.4733 62.9735 16.3133 63.0802 16.1C63.1868 15.88 63.2402 15.6067 63.2402 15.28V12.62H64.8002V18H63.3202V16.52L63.5902 16.95C63.4102 17.3233 63.1435 17.6067 62.7902 17.8C62.4435 17.9867 62.0635 18.08 61.6502 18.08ZM72.7354 12.54C73.1621 12.54 73.5387 12.6267 73.8654 12.8C74.1987 12.9667 74.4587 13.2267 74.6454 13.58C74.8387 13.9267 74.9354 14.3733 74.9354 14.92V18H73.3754V15.16C73.3754 14.7267 73.2854 14.4067 73.1054 14.2C72.9254 13.9933 72.6721 13.89 72.3454 13.89C72.1187 13.89 71.9154 13.9433 71.7354 14.05C71.5554 14.15 71.4154 14.3033 71.3154 14.51C71.2154 14.7167 71.1654 14.98 71.1654 15.3V18H69.6054V15.16C69.6054 14.7267 69.5154 14.4067 69.3354 14.2C69.1621 13.9933 68.9121 13.89 68.5854 13.89C68.3587 13.89 68.1554 13.9433 67.9754 14.05C67.7954 14.15 67.6554 14.3033 67.5554 14.51C67.4554 14.7167 67.4054 14.98 67.4054 15.3V18H65.8454V12.62H67.3354V14.09L67.0554 13.66C67.2421 13.2933 67.5054 13.0167 67.8454 12.83C68.1921 12.6367 68.5854 12.54 69.0254 12.54C69.5187 12.54 69.9487 12.6667 70.3154 12.92C70.6887 13.1667 70.9354 13.5467 71.0554 14.06L70.5054 13.91C70.6854 13.49 70.9721 13.1567 71.3654 12.91C71.7654 12.6633 72.2221 12.54 72.7354 12.54Z" fill="white"/>
<line x1="30.5" y1="8" x2="30.5" y2="24" stroke="url(#paint4_linear_1573_4088)"/>
<defs>
<linearGradient id="paint0_linear_1573_4088" x1="22.625" y1="8.9375" x2="22.625" y2="20.4375" gradientUnits="userSpaceOnUse">
<stop stop-color="#0CA2F2"/>
<stop offset="1" stop-color="#075E8C"/>
</linearGradient>
<linearGradient id="paint1_linear_1573_4088" x1="9.875" y1="8.875" x2="9.875" y2="20.375" gradientUnits="userSpaceOnUse">
<stop stop-color="#00A6FF"/>
<stop offset="1" stop-color="#003EFF"/>
</linearGradient>
<linearGradient id="paint2_linear_1573_4088" x1="22.75" y1="9.125" x2="22.75" y2="20.625" gradientUnits="userSpaceOnUse">
<stop stop-color="#00A6FF"/>
<stop offset="1" stop-color="#003EFF"/>
</linearGradient>
<linearGradient id="paint3_linear_1573_4088" x1="16.3125" y1="13.6875" x2="16.3125" y2="25.1875" gradientUnits="userSpaceOnUse">
<stop stop-color="#00A6FF"/>
<stop offset="1" stop-color="#003EFF"/>
<stop offset="1" stop-color="#0101FF"/>
<stop offset="1" stop-color="#003EFF"/>
<stop offset="1.0001" stop-color="#0000FD"/>
</linearGradient>
<linearGradient id="paint4_linear_1573_4088" x1="29.5" y1="8" x2="29.5" y2="24" gradientUnits="userSpaceOnUse">
<stop stop-color="white"/>
<stop offset="1" stop-color="#FEFEFE"/>
</linearGradient>
</defs>
</svg>