<svg width="25" height="19" viewBox="0 0 25 19" fill="none" xmlns="http://www.w3.org/2000/svg">
<path d="M11.864 18V14.64L11.544 13.904V7.888C11.544 6.82133 11.2133 5.98933 10.552 5.392C9.912 4.79467 8.92 4.496 7.576 4.496C6.65867 4.496 5.752 4.64533 4.856 4.944C3.98133 5.22133 3.23467 5.60533 2.616 6.096L0.824 2.608C1.76267 1.94667 2.89333 1.43467 4.216 1.072C5.53867 0.709333 6.88267 0.528 8.248 0.528C10.872 0.528 12.9093 1.14667 14.36 2.384C15.8107 3.62133 16.536 5.552 16.536 8.176V18H11.864ZM6.616 18.256C5.272 18.256 4.12 18.032 3.16 17.584C2.2 17.1147 1.464 16.4853 0.952 15.696C0.44 14.9067 0.184 14.0213 0.184 13.04C0.184 12.016 0.429333 11.12 0.92 10.352C1.432 9.584 2.232 8.98667 3.32 8.56C4.408 8.112 5.82667 7.888 7.576 7.888H12.152V10.8H8.12C6.94667 10.8 6.136 10.992 5.688 11.376C5.26133 11.76 5.048 12.24 5.048 12.816C5.048 13.456 5.29333 13.968 5.784 14.352C6.296 14.7147 6.98933 14.896 7.864 14.896C8.696 14.896 9.44267 14.704 10.104 14.32C10.7653 13.9147 11.2453 13.328 11.544 12.56L12.312 14.864C11.9493 15.9733 11.288 16.816 10.328 17.392C9.368 17.968 8.13067 18.256 6.616 18.256Z" fill="white"/>
<path d="M21.662 18.256C20.8087 18.256 20.0727 17.968 19.454 17.392C18.8567 16.7947 18.558 16.0373 18.558 15.12C18.558 14.2027 18.8567 13.4667 19.454 12.912C20.0727 12.336 20.8087 12.048 21.662 12.048C22.5367 12.048 23.2727 12.336 23.87 12.912C24.4673 13.4667 24.766 14.2027 24.766 15.12C24.766 16.0373 24.4673 16.7947 23.87 17.392C23.2727 17.968 22.5367 18.256 21.662 18.256Z" fill="#00D2FF"/>
</svg>
