<svg width="519" height="518" viewBox="0 0 519 518" fill="none" xmlns="http://www.w3.org/2000/svg">
<mask id="path-1-outside-1_1806_1359" maskUnits="userSpaceOnUse" x="175.922" y="42.7011" width="263.312" height="356.961" fill="black">
<rect fill="white" x="175.922" y="42.7011" width="263.312" height="356.961"/>
<path d="M245.454 67.2908C275.993 54.4276 311.846 68.4636 325.535 98.6411L433.206 336.002C435.716 341.534 433.212 347.931 427.613 350.289L326.139 393.031C320.54 395.39 313.967 392.816 311.457 387.284L203.786 149.923C190.097 119.746 203.756 84.8543 234.295 71.9912L245.454 67.2908Z"/>
</mask>
<path d="M245.454 67.2908C275.993 54.4276 311.846 68.4636 325.535 98.6411L433.206 336.002C435.716 341.534 433.212 347.931 427.613 350.289L326.139 393.031C320.54 395.39 313.967 392.816 311.457 387.284L203.786 149.923C190.097 119.746 203.756 84.8543 234.295 71.9912L245.454 67.2908Z" fill="url(#paint0_linear_1806_1359)"/>
<path d="M245.041 66.3801C276.088 53.3026 312.54 67.5725 326.457 98.2529L434.128 335.614C436.866 341.649 434.134 348.627 428.026 351.2L427.2 349.379C432.29 347.235 434.566 341.42 432.285 336.39L324.614 99.0292C311.153 69.3548 275.897 55.5527 245.867 68.2015L245.041 66.3801ZM325.63 394.33C319.522 396.903 312.352 394.096 309.614 388.06L201.943 150.699C188.025 120.019 201.912 84.5462 232.96 71.4687L234.708 72.9019C205.187 85.3362 192.168 119.472 205.629 149.147L313.3 386.507C315.582 391.537 321.145 394.05 325.725 392.121L325.63 394.33ZM201.943 150.699C188.025 120.019 201.912 84.5462 232.96 71.4687L245.041 66.3801C276.088 53.3026 312.54 67.5725 326.457 98.2529L324.614 99.0292C311.153 69.3548 275.897 55.5527 245.867 68.2015L234.708 72.9019C205.187 85.3362 192.168 119.472 205.629 149.147L201.943 150.699ZM434.128 335.614C436.866 341.649 434.134 348.627 428.026 351.2L325.63 394.33C319.522 396.903 312.352 394.096 309.614 388.06L313.3 386.507C315.582 391.537 321.145 394.05 325.725 392.121L427.2 349.379C432.29 347.235 434.566 341.42 432.285 336.39L434.128 335.614Z" fill="black" style="mix-blend-mode:screen" mask="url(#path-1-outside-1_1806_1359)"/>
<mask id="path-3-outside-2_1806_1359" maskUnits="userSpaceOnUse" x="91.5716" y="37.6581" width="246.217" height="361.669" fill="black">
<rect fill="white" x="91.5716" y="37.6581" width="246.217" height="361.669"/>
<path d="M104.223 349.588C98.6627 347.143 96.01 340.598 98.2978 334.969L196.104 94.3246C208.584 63.6204 243.286 49.5396 273.614 62.8743L282.735 66.8848C313.063 80.2195 327.533 115.92 315.053 146.624L217.247 387.268C214.959 392.898 208.597 395.479 203.037 393.034L104.223 349.588Z"/>
</mask>
<path d="M104.223 349.588C98.6627 347.143 96.01 340.598 98.2978 334.969L196.104 94.3246C208.584 63.6204 243.286 49.5396 273.614 62.8743L282.735 66.8848C313.063 80.2195 327.533 115.92 315.053 146.624L217.247 387.268C214.959 392.898 208.597 395.479 203.037 393.034L104.223 349.588Z" fill="url(#paint1_linear_1806_1359)"/>
<path d="M103.47 351.441C96.8985 348.552 93.7635 340.816 96.4674 334.164L193.521 95.3729C206.416 63.6452 242.275 49.0951 273.614 62.8743C244.297 49.9841 210.414 64.4252 197.935 95.1293L100.128 335.774C98.2564 340.379 100.427 345.734 104.976 347.734L103.47 351.441ZM337.649 91.0294L213.105 397.461L337.649 91.0294ZM217.247 387.268C214.543 393.921 207.024 396.972 200.453 394.083L103.47 351.441C96.8985 348.552 93.7635 340.816 96.4674 334.164L100.128 335.774C98.2564 340.379 100.427 345.734 104.976 347.734L203.79 391.181C209.35 393.626 215.375 391.874 217.247 387.268ZM218.7 38.7297L337.649 91.0294L218.7 38.7297Z" fill="black" style="mix-blend-mode:screen" mask="url(#path-3-outside-2_1806_1359)"/>
<defs>
<linearGradient id="paint0_linear_1806_1359" x1="247.5" y1="246.292" x2="367.765" y2="191.737" gradientUnits="userSpaceOnUse">
<stop stop-color="#00D2FF"/>
<stop offset="0.88" stop-color="#3549FF"/>
</linearGradient>
<linearGradient id="paint1_linear_1806_1359" x1="275.377" y1="244.245" x2="155.048" y2="195.339" gradientUnits="userSpaceOnUse">
<stop stop-color="#00D2FF"/>
<stop offset="0.88" stop-color="#3549FF"/>
</linearGradient>
</defs>
</svg>