<svg width="447" height="109" viewBox="0 0 447 109" fill="none" xmlns="http://www.w3.org/2000/svg">
<path d="M40.22 87V75.45L39.12 72.92V52.24C39.12 48.5733 37.9833 45.7133 35.71 43.66C33.51 41.6067 30.1 40.58 25.48 40.58C22.3267 40.58 19.21 41.0933 16.13 42.12C13.1233 43.0733 10.5567 44.3933 8.43 46.08L2.27 34.09C5.49667 31.8167 9.38333 30.0567 13.93 28.81C18.4767 27.5633 23.0967 26.94 27.79 26.94C36.81 26.94 43.8133 29.0667 48.8 33.32C53.7867 37.5733 56.28 44.21 56.28 53.23V87H40.22ZM22.18 87.88C17.56 87.88 13.6 87.11 10.3 85.57C7 83.9567 4.47 81.7933 2.71 79.08C0.95 76.3667 0.0700001 73.3233 0.0700001 69.95C0.0700001 66.43 0.913333 63.35 2.6 60.71C4.36 58.07 7.11 56.0167 10.85 54.55C14.59 53.01 19.4667 52.24 25.48 52.24H41.21V62.25H27.35C23.3167 62.25 20.53 62.91 18.99 64.23C17.5233 65.55 16.79 67.2 16.79 69.18C16.79 71.38 17.6333 73.14 19.32 74.46C21.08 75.7067 23.4633 76.33 26.47 76.33C29.33 76.33 31.8967 75.67 34.17 74.35C36.4433 72.9567 38.0933 70.94 39.12 68.3L41.76 76.22C40.5133 80.0333 38.24 82.93 34.94 84.91C31.64 86.89 27.3867 87.88 22.18 87.88ZM102.391 87.88C97.404 87.88 93.0406 86.78 89.3006 84.58C85.5606 82.38 82.6273 79.0433 80.5006 74.57C78.4473 70.0233 77.4206 64.3033 77.4206 57.41C77.4206 50.4433 78.4106 44.7233 80.3906 40.25C82.3706 35.7767 85.2306 32.44 88.9706 30.24C92.7106 28.04 97.184 26.94 102.391 26.94C107.964 26.94 112.951 28.2233 117.351 30.79C121.824 33.2833 125.344 36.8033 127.911 41.35C130.551 45.8967 131.871 51.25 131.871 57.41C131.871 63.6433 130.551 69.0333 127.911 73.58C125.344 78.1267 121.824 81.6467 117.351 84.14C112.951 86.6333 107.964 87.88 102.391 87.88ZM67.4106 108.34V27.82H83.8006V39.92L83.4706 57.52L84.5706 75.01V108.34H67.4106ZM99.4206 73.8C102.281 73.8 104.811 73.14 107.011 71.82C109.284 70.5 111.081 68.63 112.401 66.21C113.794 63.7167 114.491 60.7833 114.491 57.41C114.491 53.9633 113.794 51.03 112.401 48.61C111.081 46.19 109.284 44.32 107.011 43C104.811 41.68 102.281 41.02 99.4206 41.02C96.5606 41.02 93.994 41.68 91.7206 43C89.4473 44.32 87.6506 46.19 86.3306 48.61C85.0106 51.03 84.3506 53.9633 84.3506 57.41C84.3506 60.7833 85.0106 63.7167 86.3306 66.21C87.6506 68.63 89.4473 70.5 91.7206 71.82C93.994 73.14 96.5606 73.8 99.4206 73.8ZM168.328 87.88C161.581 87.88 155.641 86.56 150.508 83.92C145.448 81.28 141.525 77.6867 138.738 73.14C135.951 68.52 134.558 63.2767 134.558 57.41C134.558 51.47 135.915 46.2267 138.628 41.68C141.415 37.06 145.191 33.4667 149.958 30.9C154.725 28.26 160.115 26.94 166.128 26.94C171.921 26.94 177.128 28.1867 181.748 30.68C186.441 33.1 190.145 36.62 192.858 41.24C195.571 45.7867 196.928 51.25 196.928 57.63C196.928 58.29 196.891 59.06 196.818 59.94C196.745 60.7467 196.671 61.5167 196.598 62.25H148.528V52.24H187.578L180.978 55.21C180.978 52.13 180.355 49.4533 179.108 47.18C177.861 44.9067 176.138 43.1467 173.938 41.9C171.738 40.58 169.171 39.92 166.238 39.92C163.305 39.92 160.701 40.58 158.428 41.9C156.228 43.1467 154.505 44.9433 153.258 47.29C152.011 49.5633 151.388 52.2767 151.388 55.43V58.07C151.388 61.2967 152.085 64.1567 153.478 66.65C154.945 69.07 156.961 70.94 159.528 72.26C162.168 73.5067 165.248 74.13 168.768 74.13C171.921 74.13 174.671 73.6533 177.018 72.7C179.438 71.7467 181.638 70.3167 183.618 68.41L192.748 78.31C190.035 81.39 186.625 83.7733 182.518 85.46C178.411 87.0733 173.681 87.88 168.328 87.88ZM203.952 87V27.82H220.342V44.54L218.032 39.7C219.792 35.52 222.616 32.3667 226.502 30.24C230.389 28.04 235.119 26.94 240.692 26.94V42.78C239.959 42.7067 239.299 42.67 238.712 42.67C238.126 42.5967 237.502 42.56 236.842 42.56C232.149 42.56 228.336 43.9167 225.402 46.63C222.542 49.27 221.112 53.4133 221.112 59.06V87H203.952ZM246.496 87V27.82H263.656V87H246.496ZM255.076 19.57C251.922 19.57 249.356 18.6533 247.376 16.82C245.396 14.9867 244.406 12.7133 244.406 9.99999C244.406 7.28666 245.396 5.01333 247.376 3.18C249.356 1.34666 251.922 0.429993 255.076 0.429993C258.229 0.429993 260.796 1.31 262.776 3.07C264.756 4.75667 265.746 6.95667 265.746 9.67C265.746 12.53 264.756 14.9133 262.776 16.82C260.869 18.6533 258.302 19.57 255.076 19.57ZM300.152 87.88C295.238 87.88 290.838 86.9267 286.952 85.02C283.138 83.1133 280.168 80.2167 278.042 76.33C275.915 72.37 274.852 67.3467 274.852 61.26V27.82H292.012V58.73C292.012 63.6433 293.038 67.2733 295.092 69.62C297.218 71.8933 300.188 73.03 304.002 73.03C306.642 73.03 308.988 72.48 311.042 71.38C313.095 70.2067 314.708 68.4467 315.882 66.1C317.055 63.68 317.642 60.6733 317.642 57.08V27.82H334.802V87H318.522V70.72L321.492 75.45C319.512 79.5567 316.578 82.6733 312.692 84.8C308.878 86.8533 304.698 87.88 300.152 87.88ZM422.089 26.94C426.783 26.94 430.926 27.8933 434.519 29.8C438.186 31.6333 441.046 34.4933 443.099 38.38C445.226 42.1933 446.289 47.1067 446.289 53.12V87H429.129V55.76C429.129 50.9933 428.139 47.4733 426.159 45.2C424.179 42.9267 421.393 41.79 417.799 41.79C415.306 41.79 413.069 42.3767 411.089 43.55C409.109 44.65 407.569 46.3367 406.469 48.61C405.369 50.8833 404.819 53.78 404.819 57.3V87H387.659V55.76C387.659 50.9933 386.669 47.4733 384.689 45.2C382.783 42.9267 380.033 41.79 376.439 41.79C373.946 41.79 371.709 42.3767 369.729 43.55C367.749 44.65 366.209 46.3367 365.109 48.61C364.009 50.8833 363.459 53.78 363.459 57.3V87H346.299V27.82H362.689V43.99L359.609 39.26C361.663 35.2267 364.559 32.1833 368.299 30.13C372.113 28.0033 376.439 26.94 381.279 26.94C386.706 26.94 391.436 28.3333 395.469 31.12C399.576 33.8333 402.289 38.0133 403.609 43.66L397.559 42.01C399.539 37.39 402.693 33.7233 407.019 31.01C411.419 28.2967 416.443 26.94 422.089 26.94Z" fill="url(#paint0_linear_1306_1032)"/>
<defs>
<linearGradient id="paint0_linear_1306_1032" x1="23.9268" y1="32.8302" x2="377.222" y2="243.66" gradientUnits="userSpaceOnUse">
<stop stop-color="#00B3FF"/>
<stop offset="0.955" stop-color="#CACFFF"/>
</linearGradient>
</defs>
</svg>