<svg width="333" height="94" viewBox="0 0 333 94" fill="none" xmlns="http://www.w3.org/2000/svg">
<path d="M132.1 66V60.75L131.6 59.6V50.2C131.6 48.5333 131.084 47.2333 130.05 46.3C129.05 45.3667 127.5 44.9 125.4 44.9C123.967 44.9 122.55 45.1333 121.15 45.6C119.784 46.0333 118.617 46.6333 117.65 47.4L114.85 41.95C116.317 40.9167 118.084 40.1167 120.15 39.55C122.217 38.9833 124.317 38.7 126.45 38.7C130.55 38.7 133.734 39.6667 136 41.6C138.267 43.5333 139.4 46.55 139.4 50.65V66H132.1ZM123.9 66.4C121.8 66.4 120 66.05 118.5 65.35C117 64.6167 115.85 63.6333 115.05 62.4C114.25 61.1667 113.85 59.7833 113.85 58.25C113.85 56.65 114.234 55.25 115 54.05C115.8 52.85 117.05 51.9167 118.75 51.25C120.45 50.55 122.667 50.2 125.4 50.2H132.55V54.75H126.25C124.417 54.75 123.15 55.05 122.45 55.65C121.784 56.25 121.45 57 121.45 57.9C121.45 58.9 121.834 59.7 122.6 60.3C123.4 60.8667 124.484 61.15 125.85 61.15C127.15 61.15 128.317 60.85 129.35 60.25C130.384 59.6167 131.134 58.7 131.6 57.5L132.8 61.1C132.234 62.8333 131.2 64.15 129.7 65.05C128.2 65.95 126.267 66.4 123.9 66.4ZM162.36 66.4C160.093 66.4 158.11 65.9 156.41 64.9C154.71 63.9 153.376 62.3833 152.41 60.35C151.476 58.2833 151.01 55.6833 151.01 52.55C151.01 49.3833 151.46 46.7833 152.36 44.75C153.26 42.7167 154.56 41.2 156.26 40.2C157.96 39.2 159.993 38.7 162.36 38.7C164.893 38.7 167.16 39.2833 169.16 40.45C171.193 41.5833 172.793 43.1833 173.96 45.25C175.16 47.3167 175.76 49.75 175.76 52.55C175.76 55.3833 175.16 57.8333 173.96 59.9C172.793 61.9667 171.193 63.5667 169.16 64.7C167.16 65.8333 164.893 66.4 162.36 66.4ZM146.46 75.7V39.1H153.91V44.6L153.76 52.6L154.26 60.55V75.7H146.46ZM161.01 60C162.31 60 163.46 59.7 164.46 59.1C165.493 58.5 166.31 57.65 166.91 56.55C167.543 55.4167 167.86 54.0833 167.86 52.55C167.86 50.9833 167.543 49.65 166.91 48.55C166.31 47.45 165.493 46.6 164.46 46C163.46 45.4 162.31 45.1 161.01 45.1C159.71 45.1 158.543 45.4 157.51 46C156.476 46.6 155.66 47.45 155.06 48.55C154.46 49.65 154.16 50.9833 154.16 52.55C154.16 54.0833 154.46 55.4167 155.06 56.55C155.66 57.65 156.476 58.5 157.51 59.1C158.543 59.7 159.71 60 161.01 60ZM194.331 66.4C191.264 66.4 188.564 65.8 186.231 64.6C183.931 63.4 182.148 61.7667 180.881 59.7C179.614 57.6 178.981 55.2167 178.981 52.55C178.981 49.85 179.598 47.4667 180.831 45.4C182.098 43.3 183.814 41.6667 185.981 40.5C188.148 39.3 190.598 38.7 193.331 38.7C195.964 38.7 198.331 39.2667 200.431 40.4C202.564 41.5 204.248 43.1 205.481 45.2C206.714 47.2667 207.331 49.75 207.331 52.65C207.331 52.95 207.314 53.3 207.281 53.7C207.248 54.0667 207.214 54.4167 207.181 54.75H185.331V50.2H203.081L200.081 51.55C200.081 50.15 199.798 48.9333 199.231 47.9C198.664 46.8667 197.881 46.0667 196.881 45.5C195.881 44.9 194.714 44.6 193.381 44.6C192.048 44.6 190.864 44.9 189.831 45.5C188.831 46.0667 188.048 46.8833 187.481 47.95C186.914 48.9833 186.631 50.2167 186.631 51.65V52.85C186.631 54.3167 186.948 55.6167 187.581 56.75C188.248 57.85 189.164 58.7 190.331 59.3C191.531 59.8667 192.931 60.15 194.531 60.15C195.964 60.15 197.214 59.9333 198.281 59.5C199.381 59.0667 200.381 58.4167 201.281 57.55L205.431 62.05C204.198 63.45 202.648 64.5333 200.781 65.3C198.914 66.0333 196.764 66.4 194.331 66.4ZM212.524 66V39.1H219.974V46.7L218.924 44.5C219.724 42.6 221.007 41.1667 222.774 40.2C224.541 39.2 226.691 38.7 229.224 38.7V45.9C228.891 45.8667 228.591 45.85 228.324 45.85C228.057 45.8167 227.774 45.8 227.474 45.8C225.341 45.8 223.607 46.4167 222.274 47.65C220.974 48.85 220.324 50.7333 220.324 53.3V66H212.524ZM233.862 66V39.1H241.662V66H233.862ZM237.762 35.35C236.329 35.35 235.162 34.9333 234.262 34.1C233.362 33.2667 232.912 32.2333 232.912 31C232.912 29.7667 233.362 28.7333 234.262 27.9C235.162 27.0667 236.329 26.65 237.762 26.65C239.195 26.65 240.362 27.05 241.262 27.85C242.162 28.6167 242.612 29.6167 242.612 30.85C242.612 32.15 242.162 33.2333 241.262 34.1C240.395 34.9333 239.229 35.35 237.762 35.35ZM260.251 66.4C258.018 66.4 256.018 65.9667 254.251 65.1C252.518 64.2333 251.168 62.9167 250.201 61.15C249.234 59.35 248.751 57.0667 248.751 54.3V39.1H256.551V53.15C256.551 55.3833 257.018 57.0333 257.951 58.1C258.918 59.1333 260.268 59.65 262.001 59.65C263.201 59.65 264.268 59.4 265.201 58.9C266.134 58.3667 266.868 57.5667 267.401 56.5C267.934 55.4 268.201 54.0333 268.201 52.4V39.1H276.001V66H268.601V58.6L269.951 60.75C269.051 62.6167 267.718 64.0333 265.951 65C264.218 65.9333 262.318 66.4 260.251 66.4ZM317.677 38.7C319.811 38.7 321.694 39.1333 323.327 40C324.994 40.8333 326.294 42.1333 327.227 43.9C328.194 45.6333 328.677 47.8667 328.677 50.6V66H320.877V51.8C320.877 49.6333 320.427 48.0333 319.527 47C318.627 45.9667 317.361 45.45 315.727 45.45C314.594 45.45 313.577 45.7167 312.677 46.25C311.777 46.75 311.077 47.5167 310.577 48.55C310.077 49.5833 309.827 50.9 309.827 52.5V66H302.027V51.8C302.027 49.6333 301.577 48.0333 300.677 47C299.811 45.9667 298.561 45.45 296.927 45.45C295.794 45.45 294.777 45.7167 293.877 46.25C292.977 46.75 292.277 47.5167 291.777 48.55C291.277 49.5833 291.027 50.9 291.027 52.5V66H283.227V39.1H290.677V46.45L289.277 44.3C290.211 42.4667 291.527 41.0833 293.227 40.15C294.961 39.1833 296.927 38.7 299.127 38.7C301.594 38.7 303.744 39.3333 305.577 40.6C307.444 41.8333 308.677 43.7333 309.277 46.3L306.527 45.55C307.427 43.45 308.861 41.7833 310.827 40.55C312.827 39.3167 315.111 38.7 317.677 38.7Z" fill="white"/>
<mask id="path-2-outside-1_191_28" maskUnits="userSpaceOnUse" x="26.8433" y="7.1317" width="53.3308" height="69.4106" fill="black">
<rect fill="white" x="26.8433" y="7.1317" width="53.3308" height="69.4106"/>
<path d="M41.1101 13.4378C47.7266 10.6705 55.5046 13.7162 58.4828 20.2405L74.5653 55.4726C76.7397 60.236 74.5863 65.7354 69.7555 67.7558L63.2888 70.4604C58.4581 72.4808 52.7793 70.2571 50.6049 65.4936L34.5223 30.2615C31.5441 23.7373 34.4936 16.205 41.1101 13.4378V13.4378Z"/>
</mask>
<path d="M41.1101 13.4378C47.7266 10.6705 55.5046 13.7162 58.4828 20.2405L74.5653 55.4726C76.7397 60.236 74.5863 65.7354 69.7555 67.7558L63.2888 70.4604C58.4581 72.4808 52.7793 70.2571 50.6049 65.4936L34.5223 30.2615C31.5441 23.7373 34.4936 16.205 41.1101 13.4378V13.4378Z" fill="url(#paint0_linear_191_28)"/>
<path d="M40.6948 12.5281C47.8209 9.54773 56.1978 12.828 59.4053 19.8547L75.4879 55.0867C77.8916 60.3526 75.5111 66.432 70.1708 68.6655L69.3403 66.8461C73.6615 65.0388 75.5878 60.1195 73.6428 55.8584L57.5602 20.6263C54.8114 14.6045 47.6323 11.7933 41.5253 14.3475L40.6948 12.5281ZM62.7815 71.7559C57.4412 73.9894 51.1635 71.5312 48.7597 66.2653L32.6772 31.0332C29.4697 24.0065 32.6462 15.8942 39.7723 12.9139L41.5253 14.3475C35.9279 16.6885 33.6186 23.468 36.3674 29.4898L52.45 64.7219C54.395 68.983 59.0618 71.1449 62.8736 69.5507L62.7815 71.7559ZM32.6772 31.0332C29.4697 24.0065 32.6462 15.8942 39.7723 12.9139L40.6948 12.5281C47.8209 9.54773 56.1978 12.828 59.4053 19.8547L57.5602 20.6263C54.8114 14.6045 47.6323 11.7933 41.5253 14.3475C35.9279 16.6885 33.6186 23.468 36.3674 29.4898L32.6772 31.0332ZM75.4879 55.0867C77.8916 60.3526 75.5111 66.432 70.1708 68.6655L62.7815 71.7559C57.4412 73.9894 51.1635 71.5312 48.7597 66.2653L52.45 64.7219C54.395 68.983 59.0618 71.1449 62.8736 69.5507L69.3403 66.8461C73.6615 65.0388 75.5878 60.1195 73.6428 55.8584L75.4879 55.0867Z" fill="url(#paint1_linear_191_28)" mask="url(#path-2-outside-1_191_28)"/>
<mask id="path-4-outside-2_191_28" maskUnits="userSpaceOnUse" x="14.203" y="5.44882" width="49.6665" height="69.2798" fill="black">
<rect fill="white" x="14.203" y="5.44882" width="49.6665" height="69.2798"/>
<path d="M25.1418 65.6395C20.5227 63.5913 18.3087 58.1294 20.1967 53.4399L33.8175 19.6098C36.5936 12.7148 44.3498 9.5667 51.1414 12.5782V12.5782C57.933 15.5897 61.1882 23.6205 58.4122 30.5154L44.7914 64.3455C42.9033 69.035 37.6281 71.1761 33.009 69.1279L25.1418 65.6395Z"/>
</mask>
<path d="M25.1418 65.6395C20.5227 63.5913 18.3087 58.1294 20.1967 53.4399L33.8175 19.6098C36.5936 12.7148 44.3498 9.5667 51.1414 12.5782V12.5782C57.933 15.5897 61.1882 23.6205 58.4122 30.5154L44.7914 64.3455C42.9033 69.035 37.6281 71.1761 33.009 69.1279L25.1418 65.6395Z" fill="url(#paint2_linear_191_28)"/>
<path d="M24.3947 67.4952C18.766 64.9994 16.0681 58.3437 18.3688 52.6294L31.2425 20.655C34.4312 12.7352 43.3402 9.11906 51.1414 12.5782C45.3593 10.0143 38.4215 13.5254 35.6454 20.4203L22.0247 54.2504C20.5492 57.915 22.2793 62.1832 25.889 63.7838L24.3947 67.4952ZM63.4387 18.031L41.3727 72.8365L63.4387 18.031ZM44.7914 64.3455C42.4907 70.0598 36.0626 72.6689 30.4339 70.1731L24.3947 67.4952C18.766 64.9994 16.0681 58.3437 18.3688 52.6294L22.0247 54.2504C20.5492 57.915 22.2793 62.1832 25.889 63.7838L33.7561 67.2722C38.3753 69.3204 43.3159 68.0101 44.7914 64.3455ZM38.8441 7.1254L63.4387 18.031L38.8441 7.1254Z" fill="url(#paint3_linear_191_28)" mask="url(#path-4-outside-2_191_28)"/>
<line x1="94.5002" y1="13" x2="94.5002" y2="84" stroke="url(#paint4_linear_191_28)" style="mix-blend-mode:screen"/>
<defs>
<linearGradient id="paint0_linear_191_28" x1="41.8359" y1="46.2834" x2="65.4502" y2="35.5041" gradientUnits="userSpaceOnUse">
<stop stop-color="#00D2FF"/>
<stop offset="0.88" stop-color="#3549FF"/>
</linearGradient>
<linearGradient id="paint1_linear_191_28" x1="41.8359" y1="46.2834" x2="65.4502" y2="35.5041" gradientUnits="userSpaceOnUse">
<stop stop-color="#00D2FF"/>
<stop offset="0.88" stop-color="#3549FF"/>
</linearGradient>
<linearGradient id="paint2_linear_191_28" x1="52.4057" y1="45.4338" x2="27.4635" y2="35.3914" gradientUnits="userSpaceOnUse">
<stop stop-color="#00D2FF"/>
<stop offset="0.88" stop-color="#3549FF"/>
</linearGradient>
<linearGradient id="paint3_linear_191_28" x1="52.4057" y1="45.4338" x2="27.4635" y2="35.3914" gradientUnits="userSpaceOnUse">
<stop stop-color="#00D2FF"/>
<stop offset="0.88" stop-color="#3549FF"/>
</linearGradient>
<linearGradient id="paint4_linear_191_28" x1="93.0002" y1="48.5" x2="94.0002" y2="48.5" gradientUnits="userSpaceOnUse">
<stop stop-color="white"/>
<stop offset="1" stop-color="#999999"/>
</linearGradient>
</defs>
</svg>