<svg width="553" height="126" viewBox="0 0 553 126" fill="none" xmlns="http://www.w3.org/2000/svg">
<path d="M47.456 101V87.56L46.176 84.616V60.552C46.176 56.2853 44.8533 52.9573 42.208 50.568C39.648 48.1787 35.68 46.984 30.304 46.984C26.6347 46.984 23.008 47.5813 19.424 48.776C15.9253 49.8853 12.9387 51.4213 10.464 53.384L3.296 39.432C7.05067 36.7867 11.5733 34.7387 16.864 33.288C22.1547 31.8373 27.5307 31.112 32.992 31.112C43.488 31.112 51.6373 33.5867 57.44 38.536C63.2427 43.4853 66.144 51.208 66.144 61.704V101H47.456ZM26.464 102.024C21.088 102.024 16.48 101.128 12.64 99.336C8.8 97.4587 5.856 94.9413 3.808 91.784C1.76 88.6267 0.736 85.0853 0.736 81.16C0.736 77.064 1.71733 73.48 3.68 70.408C5.728 67.336 8.928 64.9467 13.28 63.24C17.632 61.448 23.3067 60.552 30.304 60.552H48.608V72.2H32.48C27.7867 72.2 24.544 72.968 22.752 74.504C21.0453 76.04 20.192 77.96 20.192 80.264C20.192 82.824 21.1733 84.872 23.136 86.408C25.184 87.8587 27.9573 88.584 31.456 88.584C34.784 88.584 37.7707 87.816 40.416 86.28C43.0613 84.6587 44.9813 82.312 46.176 79.24L49.248 88.456C47.7973 92.8933 45.152 96.264 41.312 98.568C37.472 100.872 32.5227 102.024 26.464 102.024ZM119.8 102.024C113.997 102.024 108.92 100.744 104.568 98.184C100.216 95.624 96.8027 91.7413 94.328 86.536C91.9387 81.2453 90.744 74.5893 90.744 66.568C90.744 58.4613 91.896 51.8053 94.2 46.6C96.504 41.3947 99.832 37.512 104.184 34.952C108.536 32.392 113.741 31.112 119.8 31.112C126.285 31.112 132.088 32.6053 137.208 35.592C142.413 38.4933 146.509 42.5893 149.496 47.88C152.568 53.1707 154.104 59.4 154.104 66.568C154.104 73.8213 152.568 80.0933 149.496 85.384C146.509 90.6747 142.413 94.7707 137.208 97.672C132.088 100.573 126.285 102.024 119.8 102.024ZM79.096 125.832V32.136H98.168V46.216L97.784 66.696L99.064 87.048V125.832H79.096ZM116.344 85.64C119.672 85.64 122.616 84.872 125.176 83.336C127.821 81.8 129.912 79.624 131.448 76.808C133.069 73.9067 133.88 70.4933 133.88 66.568C133.88 62.5573 133.069 59.144 131.448 56.328C129.912 53.512 127.821 51.336 125.176 49.8C122.616 48.264 119.672 47.496 116.344 47.496C113.016 47.496 110.029 48.264 107.384 49.8C104.739 51.336 102.648 53.512 101.112 56.328C99.576 59.144 98.808 62.5573 98.808 66.568C98.808 70.4933 99.576 73.9067 101.112 76.808C102.648 79.624 104.739 81.8 107.384 83.336C110.029 84.872 113.016 85.64 116.344 85.64ZM196.527 102.024C188.676 102.024 181.764 100.488 175.791 97.416C169.903 94.344 165.338 90.1627 162.095 84.872C158.852 79.496 157.231 73.3947 157.231 66.568C157.231 59.656 158.81 53.5547 161.967 48.264C165.21 42.888 169.604 38.7067 175.151 35.72C180.698 32.648 186.97 31.112 193.967 31.112C200.708 31.112 206.767 32.5627 212.143 35.464C217.604 38.28 221.914 42.376 225.071 47.752C228.228 53.0427 229.807 59.4 229.807 66.824C229.807 67.592 229.764 68.488 229.679 69.512C229.594 70.4507 229.508 71.3467 229.423 72.2H173.487V60.552H218.927L211.247 64.008C211.247 60.424 210.522 57.3093 209.071 54.664C207.62 52.0187 205.615 49.9707 203.055 48.52C200.495 46.984 197.508 46.216 194.095 46.216C190.682 46.216 187.652 46.984 185.007 48.52C182.447 49.9707 180.442 52.0613 178.991 54.792C177.54 57.4373 176.815 60.5947 176.815 64.264V67.336C176.815 71.0907 177.626 74.4187 179.247 77.32C180.954 80.136 183.3 82.312 186.287 83.848C189.359 85.2987 192.943 86.024 197.039 86.024C200.708 86.024 203.908 85.4693 206.639 84.36C209.455 83.2507 212.015 81.5867 214.319 79.368L224.943 90.888C221.786 94.472 217.818 97.2453 213.039 99.208C208.26 101.085 202.756 102.024 196.527 102.024ZM237.981 101V32.136H257.053V51.592L254.365 45.96C256.413 41.096 259.698 37.4267 264.221 34.952C268.744 32.392 274.248 31.112 280.733 31.112V49.544C279.88 49.4587 279.112 49.416 278.429 49.416C277.746 49.3307 277.021 49.288 276.253 49.288C270.792 49.288 266.354 50.8667 262.941 54.024C259.613 57.096 257.949 61.9173 257.949 68.488V101H237.981ZM287.486 101V32.136H307.454V101H287.486ZM297.47 22.536C293.801 22.536 290.814 21.4693 288.51 19.336C286.206 17.2027 285.054 14.5573 285.054 11.4C285.054 8.24266 286.206 5.59733 288.51 3.464C290.814 1.33066 293.801 0.263992 297.47 0.263992C301.139 0.263992 304.126 1.28799 306.43 3.336C308.734 5.29867 309.886 7.85867 309.886 11.016C309.886 14.344 308.734 17.1173 306.43 19.336C304.211 21.4693 301.225 22.536 297.47 22.536ZM349.922 102.024C344.205 102.024 339.085 100.915 334.562 98.696C330.125 96.4773 326.669 93.1067 324.194 88.584C321.719 83.976 320.482 78.1307 320.482 71.048V32.136H340.45V68.104C340.45 73.8213 341.645 78.0453 344.034 80.776C346.509 83.4213 349.965 84.744 354.402 84.744C357.474 84.744 360.205 84.104 362.594 82.824C364.983 81.4587 366.861 79.4107 368.226 76.68C369.591 73.864 370.274 70.3653 370.274 66.184V32.136H390.242V101H371.298V82.056L374.754 87.56C372.45 92.3387 369.037 95.9653 364.514 98.44C360.077 100.829 355.213 102.024 349.922 102.024ZM491.813 31.112C497.274 31.112 502.096 32.2213 506.277 34.44C510.544 36.5733 513.872 39.9013 516.261 44.424C518.736 48.8613 519.973 54.5787 519.973 61.576V101H500.005V64.648C500.005 59.1013 498.853 55.0053 496.549 52.36C494.245 49.7147 491.002 48.392 486.821 48.392C483.92 48.392 481.317 49.0747 479.013 50.44C476.709 51.72 474.917 53.6827 473.637 56.328C472.357 58.9733 471.717 62.344 471.717 66.44V101H451.749V64.648C451.749 59.1013 450.597 55.0053 448.293 52.36C446.074 49.7147 442.874 48.392 438.693 48.392C435.792 48.392 433.189 49.0747 430.885 50.44C428.581 51.72 426.789 53.6827 425.509 56.328C424.229 58.9733 423.589 62.344 423.589 66.44V101H403.621V32.136H422.693V50.952L419.109 45.448C421.498 40.7547 424.869 37.2133 429.221 34.824C433.658 32.3493 438.693 31.112 444.325 31.112C450.64 31.112 456.144 32.7333 460.837 35.976C465.616 39.1333 468.773 43.9973 470.309 50.568L463.269 48.648C465.573 43.272 469.242 39.0053 474.277 35.848C479.397 32.6907 485.242 31.112 491.813 31.112Z" fill="white"/>
<path d="M540.303 102.024C536.89 102.024 533.946 100.872 531.471 98.568C529.082 96.1787 527.887 93.1493 527.887 89.48C527.887 85.8107 529.082 82.8667 531.471 80.648C533.946 78.344 536.89 77.192 540.303 77.192C543.802 77.192 546.746 78.344 549.135 80.648C551.524 82.8667 552.719 85.8107 552.719 89.48C552.719 93.1493 551.524 96.1787 549.135 98.568C546.746 100.872 543.802 102.024 540.303 102.024Z" fill="#00D2FF"/>
</svg>