<svg width="" height="" viewBox="0 0 973 184" fill="none" xmlns="http://www.w3.org/2000/svg">
<rect x="66.9785" y="72.9531" width="29.5586" height="66.125" rx="14.7793" fill="url(#paint0_linear_1470_2021)"/>
<rect x="66.9785" y="72.9531" width="29.5586" height="66.125" rx="14.7793" fill="#00D2FF"/>
<rect x="66.9785" y="72.9531" width="29.5586" height="66.125" rx="14.7793" fill="url(#paint1_linear_1470_2021)"/>
<rect x="99.3672" y="51.0312" width="29.5586" height="66.125" rx="14.7793" fill="url(#paint2_linear_1470_2021)"/>
<rect x="99.3672" y="51.0312" width="29.5586" height="66.125" rx="14.7793" fill="url(#paint3_linear_1470_2021)"/>
<rect x="34.5898" y="51.0312" width="29.5586" height="66.125" rx="14.7793" fill="url(#paint4_linear_1470_2021)"/>
<path d="M200.728 111V104.28L200.088 102.808V90.776C200.088 88.6427 199.427 86.9787 198.104 85.784C196.824 84.5893 194.84 83.992 192.152 83.992C190.317 83.992 188.504 84.2907 186.712 84.888C184.963 85.4427 183.469 86.2107 182.232 87.192L178.648 80.216C180.525 78.8933 182.787 77.8693 185.432 77.144C188.077 76.4187 190.765 76.056 193.496 76.056C198.744 76.056 202.819 77.2933 205.72 79.768C208.621 82.2427 210.072 86.104 210.072 91.352V111H200.728ZM190.232 111.512C187.544 111.512 185.24 111.064 183.32 110.168C181.4 109.229 179.928 107.971 178.904 106.392C177.88 104.813 177.368 103.043 177.368 101.08C177.368 99.032 177.859 97.24 178.84 95.704C179.864 94.168 181.464 92.9733 183.64 92.12C185.816 91.224 188.653 90.776 192.152 90.776H201.304V96.6H193.24C190.893 96.6 189.272 96.984 188.376 97.752C187.523 98.52 187.096 99.48 187.096 100.632C187.096 101.912 187.587 102.936 188.568 103.704C189.592 104.429 190.979 104.792 192.728 104.792C194.392 104.792 195.885 104.408 197.208 103.64C198.531 102.829 199.491 101.656 200.088 100.12L201.624 104.728C200.899 106.947 199.576 108.632 197.656 109.784C195.736 110.936 193.261 111.512 190.232 111.512ZM236.9 111.512C233.999 111.512 231.46 110.872 229.284 109.592C227.108 108.312 225.401 106.371 224.164 103.768C222.969 101.123 222.372 97.7947 222.372 93.784C222.372 89.7307 222.948 86.4027 224.1 83.8C225.252 81.1973 226.916 79.256 229.092 77.976C231.268 76.696 233.871 76.056 236.9 76.056C240.143 76.056 243.044 76.8027 245.604 78.296C248.207 79.7467 250.255 81.7947 251.748 84.44C253.284 87.0853 254.052 90.2 254.052 93.784C254.052 97.4107 253.284 100.547 251.748 103.192C250.255 105.837 248.207 107.885 245.604 109.336C243.044 110.787 240.143 111.512 236.9 111.512ZM216.548 123.416V76.568H226.084V83.608L225.892 93.848L226.532 104.024V123.416H216.548ZM235.172 103.32C236.836 103.32 238.308 102.936 239.588 102.168C240.911 101.4 241.956 100.312 242.724 98.904C243.535 97.4533 243.94 95.7467 243.94 93.784C243.94 91.7787 243.535 90.072 242.724 88.664C241.956 87.256 240.911 86.168 239.588 85.4C238.308 84.632 236.836 84.248 235.172 84.248C233.508 84.248 232.015 84.632 230.692 85.4C229.369 86.168 228.324 87.256 227.556 88.664C226.788 90.072 226.404 91.7787 226.404 93.784C226.404 95.7467 226.788 97.4533 227.556 98.904C228.324 100.312 229.369 101.4 230.692 102.168C232.015 102.936 233.508 103.32 235.172 103.32ZM275.263 111.512C271.338 111.512 267.882 110.744 264.895 109.208C261.951 107.672 259.669 105.581 258.047 102.936C256.426 100.248 255.615 97.1973 255.615 93.784C255.615 90.328 256.405 87.2773 257.983 84.632C259.605 81.944 261.802 79.8533 264.575 78.36C267.349 76.824 270.485 76.056 273.983 76.056C277.354 76.056 280.383 76.7813 283.071 78.232C285.802 79.64 287.957 81.688 289.535 84.376C291.114 87.0213 291.903 90.2 291.903 93.912C291.903 94.296 291.882 94.744 291.84 95.256C291.797 95.7253 291.754 96.1733 291.711 96.6H263.743V90.776H286.463L282.623 92.504C282.623 90.712 282.261 89.1547 281.535 87.832C280.81 86.5093 279.807 85.4853 278.527 84.76C277.247 83.992 275.754 83.608 274.047 83.608C272.341 83.608 270.826 83.992 269.503 84.76C268.223 85.4853 267.221 86.5307 266.495 87.896C265.77 89.2187 265.407 90.7973 265.407 92.632V94.168C265.407 96.0453 265.813 97.7093 266.623 99.16C267.477 100.568 268.65 101.656 270.143 102.424C271.679 103.149 273.471 103.512 275.519 103.512C277.354 103.512 278.954 103.235 280.319 102.68C281.727 102.125 283.007 101.293 284.159 100.184L289.472 105.944C287.893 107.736 285.909 109.123 283.519 110.104C281.13 111.043 278.378 111.512 275.263 111.512ZM295.99 111V76.568H305.527V86.296L304.182 83.48C305.207 81.048 306.849 79.2133 309.111 77.976C311.372 76.696 314.124 76.056 317.367 76.056V85.272C316.94 85.2293 316.556 85.208 316.215 85.208C315.873 85.1653 315.511 85.144 315.127 85.144C312.396 85.144 310.177 85.9333 308.471 87.512C306.807 89.048 305.975 91.4587 305.975 94.744V111H295.99ZM320.743 111V76.568H330.727V111H320.743ZM325.735 71.768C323.9 71.768 322.407 71.2347 321.255 70.168C320.103 69.1013 319.527 67.7787 319.527 66.2C319.527 64.6213 320.103 63.2987 321.255 62.232C322.407 61.1653 323.9 60.632 325.735 60.632C327.57 60.632 329.063 61.144 330.215 62.168C331.367 63.1493 331.943 64.4293 331.943 66.008C331.943 67.672 331.367 69.0587 330.215 70.168C329.106 71.2347 327.612 71.768 325.735 71.768ZM351.961 111.512C349.102 111.512 346.542 110.957 344.281 109.848C342.062 108.739 340.334 107.053 339.097 104.792C337.86 102.488 337.241 99.5653 337.241 96.024V76.568H347.225V94.552C347.225 97.4107 347.822 99.5227 349.017 100.888C350.254 102.211 351.982 102.872 354.201 102.872C355.737 102.872 357.102 102.552 358.297 101.912C359.492 101.229 360.43 100.205 361.113 98.84C361.796 97.432 362.137 95.6827 362.137 93.592V76.568H372.121V111H362.649V101.528L364.377 104.28C363.225 106.669 361.518 108.483 359.257 109.72C357.038 110.915 354.606 111.512 351.961 111.512ZM422.907 76.056C425.637 76.056 428.048 76.6107 430.139 77.72C432.272 78.7867 433.936 80.4507 435.131 82.712C436.368 84.9307 436.987 87.7893 436.987 91.288V111H427.003V92.824C427.003 90.0507 426.427 88.0027 425.275 86.68C424.123 85.3573 422.501 84.696 420.411 84.696C418.96 84.696 417.659 85.0373 416.507 85.72C415.354 86.36 414.458 87.3413 413.819 88.664C413.179 89.9867 412.859 91.672 412.859 93.72V111H402.875V92.824C402.875 90.0507 402.299 88.0027 401.147 86.68C400.037 85.3573 398.437 84.696 396.347 84.696C394.896 84.696 393.595 85.0373 392.443 85.72C391.291 86.36 390.395 87.3413 389.755 88.664C389.115 89.9867 388.795 91.672 388.795 93.72V111H378.81V76.568H388.347V85.976L386.554 83.224C387.749 80.8773 389.435 79.1067 391.611 77.912C393.829 76.6747 396.346 76.056 399.163 76.056C402.32 76.056 405.072 76.8667 407.419 78.488C409.808 80.0667 411.387 82.4987 412.155 85.784L408.635 84.824C409.787 82.136 411.621 80.0027 414.139 78.424C416.699 76.8453 419.621 76.056 422.907 76.056Z" fill="#FEFEFE"/>
<defs>
<linearGradient id="paint0_linear_1470_2021" x1="81.7578" y1="72.9531" x2="31.3422" y2="101.25" gradientUnits="userSpaceOnUse">
<stop/>
<stop offset="0.35" stop-color="#1A1A1D"/>
<stop offset="1" stop-color="#4B8794"/>
</linearGradient>
<linearGradient id="paint1_linear_1470_2021" x1="81.7578" y1="72.9531" x2="81.7578" y2="139.078" gradientUnits="userSpaceOnUse">
<stop stop-color="#00A6FF"/>
<stop offset="0.0001" stop-color="#00A6FF"/>
<stop offset="1" stop-color="#1414A3"/>
</linearGradient>
<linearGradient id="paint2_linear_1470_2021" x1="114.146" y1="51.0312" x2="63.7309" y2="79.3286" gradientUnits="userSpaceOnUse">
<stop/>
<stop offset="0.35" stop-color="#1A1A1D"/>
<stop offset="1" stop-color="#4B8794"/>
</linearGradient>
<linearGradient id="paint3_linear_1470_2021" x1="114.146" y1="51.0312" x2="114.146" y2="117.156" gradientUnits="userSpaceOnUse">
<stop stop-color="#00A6FF"/>
<stop offset="0.0001" stop-color="#00A6FF"/>
<stop offset="1" stop-color="#1414A3"/>
</linearGradient>
<linearGradient id="paint4_linear_1470_2021" x1="49.3691" y1="51.0312" x2="49.3691" y2="117.156" gradientUnits="userSpaceOnUse">
<stop stop-color="#00A6FF"/>
<stop offset="0.0001" stop-color="#00A6FF"/>
<stop offset="1" stop-color="#1414A3"/>
</linearGradient>
</defs>
</svg>