<svg width="1514" height="428" viewBox="0 0 1514 428" fill="none" xmlns="http://www.w3.org/2000/svg">
<mask id="path-1-outside-1_219_15" maskUnits="userSpaceOnUse" x="135.131" y="35.6006" width="220.509" height="302.595" fill="black">
<rect fill="white" x="135.131" y="35.6006" width="220.509" height="302.595"/>
<path d="M194.73 61.6901C224.915 48.018 259.827 61.6848 272.708 92.2157L349.84 275.03C352.201 280.627 349.629 287.197 344.095 289.703L252.88 331.019C247.346 333.525 240.946 331.02 238.584 325.422L161.453 142.608C148.572 112.077 162.599 76.2434 192.784 62.5713L194.73 61.6901Z"/>
</mask>
<path d="M194.73 61.6901C224.915 48.018 259.827 61.6848 272.708 92.2157L349.84 275.03C352.201 280.627 349.629 287.197 344.095 289.703L252.88 331.019C247.346 333.525 240.946 331.02 238.584 325.422L161.453 142.608C148.572 112.077 162.599 76.2434 192.784 62.5713L194.73 61.6901Z" fill="url(#paint0_linear_219_15)" style="mix-blend-mode:screen"/>
<path d="M194.341 60.7688C225.029 46.8688 260.523 60.7633 273.619 91.8031L350.75 274.617C353.327 280.724 350.521 287.89 344.484 290.625L343.707 288.782C348.738 286.503 351.076 280.531 348.929 275.443L271.797 92.6283C259.131 62.6062 224.8 49.1672 195.118 62.6115L194.341 60.7688ZM252.358 332.353C246.321 335.087 239.339 332.354 236.762 326.247L159.631 143.433C146.535 112.393 160.797 75.9625 191.485 62.0625L193.173 63.4926C163.994 76.709 150.608 111.761 163.275 141.783L240.406 324.597C242.553 329.686 247.964 332.148 252.492 330.097L252.358 332.353ZM159.631 143.433C146.535 112.393 160.797 75.9625 191.485 62.0625L194.341 60.7688C225.029 46.8688 260.523 60.7633 273.619 91.8031L271.797 92.6283C259.131 62.6062 224.8 49.1672 195.118 62.6115L193.173 63.4926C163.994 76.709 150.608 111.761 163.275 141.783L159.631 143.433ZM350.75 274.617C353.327 280.724 350.521 287.89 344.484 290.625L252.358 332.353C246.321 335.087 239.339 332.354 236.762 326.247L240.406 324.597C242.553 329.686 247.964 332.148 252.492 330.097L343.707 288.782C348.738 286.503 351.076 280.531 348.929 275.443L350.75 274.617Z" fill="url(#paint1_linear_219_15)" mask="url(#path-1-outside-1_219_15)"/>
<mask id="path-3-outside-2_219_15" maskUnits="userSpaceOnUse" x="70.451" y="32.4576" width="224.781" height="301.853" fill="black">
<rect fill="white" x="70.451" y="32.4576" width="224.781" height="301.853"/>
<path d="M83.301 291.799C77.672 289.511 75.0906 283.148 77.5351 277.588L160.809 88.1716C173.996 58.1769 209.301 43.8684 239.666 56.2127V56.2127C270.031 68.557 283.956 102.88 270.769 132.874L187.495 322.29C185.05 327.851 178.506 330.503 172.877 328.215L83.301 291.799Z"/>
</mask>
<path d="M83.301 291.799C77.672 289.511 75.0906 283.148 77.5351 277.588L160.809 88.1716C173.996 58.1769 209.301 43.8684 239.666 56.2127V56.2127C270.031 68.557 283.956 102.88 270.769 132.874L187.495 322.29C185.05 327.851 178.506 330.503 172.877 328.215L83.301 291.799Z" fill="url(#paint2_linear_219_15)" style="mix-blend-mode:screen"/>
<path d="M82.4962 293.63C75.8438 290.925 72.793 283.406 75.682 276.834L158.151 89.2488C171.783 58.2431 208.278 43.4523 239.666 56.2127C210.325 44.2845 175.849 58.9303 162.662 88.925L79.3882 278.341C77.3882 282.891 79.5003 288.096 84.1058 289.969L82.4962 293.63ZM294.646 78.564L183.069 332.358L294.646 78.564ZM187.495 322.29C184.606 328.862 176.871 331.997 170.219 329.292L82.4962 293.63C75.8438 290.925 72.793 283.406 75.682 276.834L79.3882 278.341C77.3882 282.891 79.5003 288.096 84.1058 289.969L173.681 326.384C179.31 328.673 185.495 326.84 187.495 322.29ZM184.686 33.8614L294.646 78.564L184.686 33.8614Z" fill="url(#paint3_linear_219_15)" mask="url(#path-3-outside-2_219_15)"/>
<path d="M576.4 277V256L574.4 251.4V213.8C574.4 207.133 572.333 201.933 568.2 198.2C564.2 194.467 558 192.6 549.6 192.6C543.867 192.6 538.2 193.533 532.6 195.4C527.133 197.133 522.467 199.533 518.6 202.6L507.4 180.8C513.267 176.667 520.333 173.467 528.6 171.2C536.867 168.933 545.267 167.8 553.8 167.8C570.2 167.8 582.933 171.667 592 179.4C601.067 187.133 605.6 199.2 605.6 215.6V277H576.4ZM543.6 278.6C535.2 278.6 528 277.2 522 274.4C516 271.467 511.4 267.533 508.2 262.6C505 257.667 503.4 252.133 503.4 246C503.4 239.6 504.933 234 508 229.2C511.2 224.4 516.2 220.667 523 218C529.8 215.2 538.667 213.8 549.6 213.8H578.2V232H553C545.667 232 540.6 233.2 537.8 235.6C535.133 238 533.8 241 533.8 244.6C533.8 248.6 535.333 251.8 538.4 254.2C541.6 256.467 545.933 257.6 551.4 257.6C556.6 257.6 561.267 256.4 565.4 254C569.533 251.467 572.533 247.8 574.4 243L579.2 257.4C576.933 264.333 572.8 269.6 566.8 273.2C560.8 276.8 553.067 278.6 543.6 278.6ZM689.438 278.6C680.371 278.6 672.438 276.6 665.638 272.6C658.838 268.6 653.504 262.533 649.638 254.4C645.904 246.133 644.038 235.733 644.038 223.2C644.038 210.533 645.838 200.133 649.438 192C653.038 183.867 658.238 177.8 665.038 173.8C671.838 169.8 679.971 167.8 689.438 167.8C699.571 167.8 708.638 170.133 716.638 174.8C724.771 179.333 731.171 185.733 735.838 194C740.638 202.267 743.038 212 743.038 223.2C743.038 234.533 740.638 244.333 735.838 252.6C731.171 260.867 724.771 267.267 716.638 271.8C708.638 276.333 699.571 278.6 689.438 278.6ZM625.838 315.8V169.4H655.638V191.4L655.038 223.4L657.038 255.2V315.8H625.838ZM684.038 253C689.238 253 693.838 251.8 697.838 249.4C701.971 247 705.238 243.6 707.638 239.2C710.171 234.667 711.438 229.333 711.438 223.2C711.438 216.933 710.171 211.6 707.638 207.2C705.238 202.8 701.971 199.4 697.838 197C693.838 194.6 689.238 193.4 684.038 193.4C678.838 193.4 674.171 194.6 670.038 197C665.904 199.4 662.638 202.8 660.238 207.2C657.838 211.6 656.638 216.933 656.638 223.2C656.638 229.333 657.838 234.667 660.238 239.2C662.638 243.6 665.904 247 670.038 249.4C674.171 251.8 678.838 253 684.038 253ZM809.323 278.6C797.057 278.6 786.257 276.2 776.923 271.4C767.723 266.6 760.59 260.067 755.523 251.8C750.457 243.4 747.923 233.867 747.923 223.2C747.923 212.4 750.39 202.867 755.323 194.6C760.39 186.2 767.257 179.667 775.923 175C784.59 170.2 794.39 167.8 805.323 167.8C815.857 167.8 825.323 170.067 833.723 174.6C842.257 179 848.99 185.4 853.923 193.8C858.857 202.067 861.323 212 861.323 223.6C861.323 224.8 861.257 226.2 861.123 227.8C860.99 229.267 860.857 230.667 860.723 232H773.323V213.8H844.323L832.323 219.2C832.323 213.6 831.19 208.733 828.923 204.6C826.657 200.467 823.523 197.267 819.523 195C815.523 192.6 810.857 191.4 805.523 191.4C800.19 191.4 795.457 192.6 791.323 195C787.323 197.267 784.19 200.533 781.923 204.8C779.657 208.933 778.523 213.867 778.523 219.6V224.4C778.523 230.267 779.79 235.467 782.323 240C784.99 244.4 788.657 247.8 793.323 250.2C798.123 252.467 803.723 253.6 810.123 253.6C815.857 253.6 820.857 252.733 825.123 251C829.523 249.267 833.523 246.667 837.123 243.2L853.723 261.2C848.79 266.8 842.59 271.133 835.123 274.2C827.657 277.133 819.057 278.6 809.323 278.6ZM874.095 277V169.4H903.895V199.8L899.695 191C902.895 183.4 908.029 177.667 915.095 173.8C922.162 169.8 930.762 167.8 940.895 167.8V196.6C939.562 196.467 938.362 196.4 937.295 196.4C936.229 196.267 935.095 196.2 933.895 196.2C925.362 196.2 918.429 198.667 913.095 203.6C907.895 208.4 905.295 215.933 905.295 226.2V277H874.095ZM951.447 277V169.4H982.647V277H951.447ZM967.047 154.4C961.314 154.4 956.647 152.733 953.047 149.4C949.447 146.067 947.647 141.933 947.647 137C947.647 132.067 949.447 127.933 953.047 124.6C956.647 121.267 961.314 119.6 967.047 119.6C972.78 119.6 977.447 121.2 981.047 124.4C984.647 127.467 986.447 131.467 986.447 136.4C986.447 141.6 984.647 145.933 981.047 149.4C977.58 152.733 972.914 154.4 967.047 154.4ZM1049 278.6C1040.07 278.6 1032.07 276.867 1025 273.4C1018.07 269.933 1012.67 264.667 1008.8 257.6C1004.94 250.4 1003 241.267 1003 230.2V169.4H1034.2V225.6C1034.2 234.533 1036.07 241.133 1039.8 245.4C1043.67 249.533 1049.07 251.6 1056 251.6C1060.8 251.6 1065.07 250.6 1068.8 248.6C1072.54 246.467 1075.47 243.267 1077.6 239C1079.74 234.6 1080.8 229.133 1080.8 222.6V169.4H1112V277H1082.4V247.4L1087.8 256C1084.2 263.467 1078.87 269.133 1071.8 273C1064.87 276.733 1057.27 278.6 1049 278.6ZM1270.71 167.8C1279.24 167.8 1286.77 169.533 1293.31 173C1299.97 176.333 1305.17 181.533 1308.91 188.6C1312.77 195.533 1314.71 204.467 1314.71 215.4V277H1283.51V220.2C1283.51 211.533 1281.71 205.133 1278.11 201C1274.51 196.867 1269.44 194.8 1262.91 194.8C1258.37 194.8 1254.31 195.867 1250.71 198C1247.11 200 1244.31 203.067 1242.31 207.2C1240.31 211.333 1239.31 216.6 1239.31 223V277H1208.11V220.2C1208.11 211.533 1206.31 205.133 1202.71 201C1199.24 196.867 1194.24 194.8 1187.71 194.8C1183.17 194.8 1179.11 195.867 1175.51 198C1171.91 200 1169.11 203.067 1167.11 207.2C1165.11 211.333 1164.11 216.6 1164.11 223V277H1132.91V169.4H1162.71V198.8L1157.11 190.2C1160.84 182.867 1166.11 177.333 1172.91 173.6C1179.84 169.733 1187.71 167.8 1196.51 167.8C1206.37 167.8 1214.97 170.333 1222.31 175.4C1229.77 180.333 1234.71 187.933 1237.11 198.2L1226.11 195.2C1229.71 186.8 1235.44 180.133 1243.31 175.2C1251.31 170.267 1260.44 167.8 1270.71 167.8Z" fill="white"/>
<line x1="429.5" y1="71.0035" x2="427.5" y2="355.004" stroke="white"/>
<defs>
<linearGradient id="paint0_linear_219_15" x1="190.495" y1="211.442" x2="302.987" y2="163.981" gradientUnits="userSpaceOnUse">
<stop stop-color="white"/>
<stop offset="1" stop-color="#999999"/>
</linearGradient>
<linearGradient id="paint1_linear_219_15" x1="212.738" y1="71.5619" x2="227.156" y2="336.412" gradientUnits="userSpaceOnUse">
<stop offset="0.0539026" stop-color="#9D958A"/>
<stop offset="0.27" stop-color="#D4C7B5"/>
<stop offset="0.43" stop-color="#B6B6B6"/>
<stop offset="0.6" stop-color="#A1A1A1"/>
<stop offset="0.785" stop-color="#727272"/>
<stop offset="0.955" stop-color="#222222"/>
</linearGradient>
<linearGradient id="paint2_linear_219_15" x1="238.857" y1="205.461" x2="130.238" y2="157.708" gradientUnits="userSpaceOnUse">
<stop stop-color="white"/>
<stop offset="1" stop-color="#999999"/>
</linearGradient>
<linearGradient id="paint3_linear_219_15" x1="122.444" y1="289.471" x2="312.579" y2="96.2071" gradientUnits="userSpaceOnUse">
<stop offset="0.0539026" stop-color="#9D958A"/>
<stop offset="0.27" stop-color="#D4C7B5"/>
<stop offset="0.43" stop-color="#B6B6B6"/>
<stop offset="0.6" stop-color="#A1A1A1"/>
<stop offset="0.785" stop-color="#727272"/>
<stop offset="0.955" stop-color="#222222"/>
</linearGradient>
</defs>
</svg>